<mxfile host="app.diagrams.net" modified="2024-04-12T07:22:12.805Z" agent="Mozilla/5.0 (Macintosh; Intel Mac OS X 10_15_7) AppleWebKit/605.1.15 (KHTML, like Gecko) Version/16.6 Safari/605.1.15" version="24.2.3" etag="nDOkrLtjcYEejfSW1SBU" type="github">
  <diagram name="第 1 页" id="cUPQilYxBffBbkeb9Y6o">
    <mxGraphModel>
      <root>
        <mxCell id="0" />
        <mxCell id="1" parent="0" />
      </root>
    </mxGraphModel>
  </diagram>
</mxfile>
